<?xml version="1.0" encoding="utf-8"?>
<!-- Generator: Adobe Illustrator 18.0.0, SVG Export Plug-In . SVG Version: 6.00 Build 0)  -->
<!DOCTYPE svg PUBLIC "-//W3C//DTD SVG 1.1//EN" "http://www.w3.org/Graphics/SVG/1.1/DTD/svg11.dtd">
<svg version="1.1" id="Layer_1" xmlns="http://www.w3.org/2000/svg" xmlns:xlink="http://www.w3.org/1999/xlink" x="0px" y="0px"
	 width="200px" height="200.01px" viewBox="0 0 200 200.01" enable-background="new 0 0 200 200.01" xml:space="preserve">
<path fill="#D45152" d="M130,41.596c-4.641,0-8.404,3.763-8.404,8.404c0,4.641,3.763,8.404,8.404,8.404s8.404-3.763,8.404-8.404
	C138.404,45.359,134.641,41.596,130,41.596z M130.978,55.146h-1.957V53.19h1.957V55.146z M130.883,51.264h-1.664l-0.165-6.571h1.979
	L130.883,51.264z"/>
<g>
	<g>
		<g>
			<g>
				<path fill="#A5A4A4" d="M3.24,3.24c-2.465,2.465-2.465,6.461,0,8.926c2.104,2.104,5.322,2.406,7.753,0.917l5.114,5.114
					c0.547,0.547,1.434,0.547,1.981,0l0.109-0.109c0.547-0.547,0.547-1.434,0-1.981l-5.114-5.114
					c1.489-2.431,1.188-5.649-0.917-7.753C9.702,0.776,5.705,0.776,3.24,3.24z M10.605,10.605c-1.603,1.603-4.201,1.603-5.804,0
					c-1.603-1.603-1.603-4.201,0-5.804s4.201-1.603,5.804,0C12.208,6.404,12.208,9.003,10.605,10.605z"/>
			</g>
		</g>
	</g>
</g>
<path fill="#A5A4A4" d="M3.223,21.392v17.216h13.554V21.392H3.223z M5.418,27.26h6.905v1.81H5.418V27.26z M10.771,36.194H5.418
	v-1.81h5.353V36.194z M13.566,32.619H5.418v-1.81h8.148V32.619z M14.582,25.616H5.418v-1.81h9.164V25.616z"/>
<g>
	<path fill="#9398A3" d="M23.24,3.24c-2.465,2.465-2.465,6.461,0,8.926c2.104,2.104,5.322,2.406,7.753,0.917l5.114,5.114
		c0.547,0.547,1.434,0.547,1.981,0l0.109-0.109c0.547-0.547,0.547-1.434,0-1.981l-5.114-5.114c1.489-2.431,1.188-5.649-0.917-7.753
		C29.702,0.776,25.705,0.776,23.24,3.24z M30.605,10.605c-1.603,1.603-4.201,1.603-5.804,0c-1.603-1.603-1.603-4.201,0-5.804
		c1.603-1.603,4.201-1.603,5.804,0C32.208,6.404,32.208,9.003,30.605,10.605z"/>
</g>
<path fill="#9398A3" d="M23.223,21.392v17.216h13.554V21.392H23.223z M25.418,27.26h6.905v1.81h-6.905V27.26z M30.771,36.194h-5.353
	v-1.81h5.353V36.194z M33.566,32.619h-8.148v-1.81h8.148V32.619z M34.582,25.616h-9.164v-1.81h9.164V25.616z"/>
<g>
	<g>
		<g>
			<g>
				<path fill="#FFFFFF" d="M43.24,3.24c-2.465,2.465-2.465,6.461,0,8.926c2.104,2.104,5.322,2.406,7.753,0.917l5.114,5.114
					c0.547,0.547,1.434,0.547,1.981,0l0.109-0.109c0.547-0.547,0.547-1.434,0-1.981l-5.114-5.114
					c1.489-2.431,1.188-5.649-0.917-7.753C49.702,0.776,45.705,0.776,43.24,3.24z M50.605,10.605c-1.603,1.603-4.201,1.603-5.804,0
					c-1.603-1.603-1.603-4.201,0-5.804c1.603-1.603,4.201-1.603,5.804,0C52.208,6.404,52.208,9.003,50.605,10.605z"/>
			</g>
		</g>
	</g>
</g>
<path fill="#FFFFFF" d="M43.223,21.392v17.216h13.554V21.392H43.223z M45.418,27.26h6.905v1.81h-6.905V27.26z M50.771,36.194h-5.353
	v-1.81h5.353V36.194z M53.566,32.619h-8.148v-1.81h8.148V32.619z M54.582,25.616h-9.164v-1.81h9.164V25.616z"/>
<g>
	<g>
		<g>
			<g>
				<path fill="#4F5055" d="M63.24,3.24c-2.465,2.465-2.465,6.461,0,8.926c2.104,2.104,5.322,2.406,7.753,0.917l5.114,5.114
					c0.547,0.547,1.434,0.547,1.981,0l0.109-0.109c0.547-0.547,0.547-1.434,0-1.981l-5.114-5.114
					c1.489-2.431,1.188-5.649-0.917-7.753C69.702,0.776,65.705,0.776,63.24,3.24z M70.605,10.605c-1.603,1.603-4.201,1.603-5.804,0
					c-1.603-1.603-1.603-4.201,0-5.804s4.201-1.603,5.804,0C72.208,6.404,72.208,9.003,70.605,10.605z"/>
			</g>
		</g>
	</g>
</g>
<path fill="#4F5055" d="M63.223,21.392v17.216h13.554V21.392H63.223z M65.418,27.26h6.905v1.81h-6.905V27.26z M70.771,36.194h-5.353
	v-1.81h5.353V36.194z M73.566,32.619h-8.148v-1.81h8.148V32.619z M74.582,25.616h-9.164v-1.81h9.164V25.616z"/>
<path fill="#4F5055" d="M70,41.125c-4.902,0-8.875,3.974-8.875,8.875c0,4.902,3.973,8.875,8.875,8.875s8.875-3.973,8.875-8.875
	C78.875,45.099,74.902,41.125,70,41.125z M71.033,55.435h-2.066v-2.067h2.066V55.435z M70.933,51.335h-1.758l-0.174-6.94h2.09
	L70.933,51.335z"/>
<path fill="#FFFFFF" d="M50,41.125c-4.902,0-8.875,3.974-8.875,8.875c0,4.902,3.973,8.875,8.875,8.875s8.875-3.973,8.875-8.875
	C58.875,45.099,54.902,41.125,50,41.125z M51.033,55.435h-2.066v-2.067h2.066V55.435z M50.933,51.335h-1.758l-0.174-6.94h2.09
	L50.933,51.335z"/>
<path fill="#9398A3" d="M30,41.125c-4.902,0-8.875,3.974-8.875,8.875c0,4.902,3.973,8.875,8.875,8.875s8.875-3.973,8.875-8.875
	C38.875,45.099,34.902,41.125,30,41.125z M31.033,55.435h-2.066v-2.067h2.066V55.435z M30.933,51.335h-1.758l-0.174-6.94h2.09
	L30.933,51.335z"/>
<path fill="#A5A4A4" d="M10,41.125c-4.902,0-8.875,3.974-8.875,8.875c0,4.902,3.973,8.875,8.875,8.875s8.875-3.973,8.875-8.875
	C18.875,45.099,14.902,41.125,10,41.125z M11.033,55.435H8.967v-2.067h2.066V55.435z M10.933,51.335H9.175l-0.174-6.94h2.09
	L10.933,51.335z"/>
<path fill="#DFA34E" d="M110,41.596c-4.641,0-8.404,3.763-8.404,8.404c0,4.641,3.763,8.404,8.404,8.404s8.404-3.763,8.404-8.404
	C118.404,45.359,114.641,41.596,110,41.596z M110.978,55.146h-1.957V53.19h1.957V55.146z M110.883,51.264h-1.664l-0.165-6.571h1.979
	L110.883,51.264z"/>
<polygon fill="#747576" points="10,72.79 5.506,67.886 6.244,67.21 10,71.309 13.756,67.21 14.494,67.886 "/>
<polygon fill="#747576" points="30,67.21 34.494,72.114 33.756,72.79 30,68.691 26.244,72.79 25.506,72.114 "/>
<path fill="#54BD82" d="M110,81.596c-4.642,0-8.404,3.763-8.404,8.404s3.762,8.404,8.404,8.404s8.404-3.763,8.404-8.404
	S114.642,81.596,110,81.596z M109.49,94.456l-3.99-3.202l0.915-1.14l2.698,2.165l4.142-6.734l1.245,0.766L109.49,94.456z"/>
<polygon fill="#4F5055" points="69.223,96.789 63.144,91.909 64.538,90.172 68.648,93.472 74.959,83.211 76.856,84.378 "/>
<polygon fill="#54BD82" points="89.223,96.789 83.144,91.909 84.538,90.172 88.648,93.472 94.959,83.211 96.856,84.378 "/>
<polygon fill="#FFFFFF" points="49.223,96.789 43.144,91.909 44.538,90.172 48.648,93.472 54.959,83.211 56.856,84.378 "/>
<polygon fill="#9398A3" points="29.223,96.789 23.144,91.909 24.538,90.172 28.648,93.472 34.959,83.211 36.856,84.378 "/>
<polygon fill="#A5A4A4" points="9.223,96.789 3.144,91.909 4.538,90.172 8.648,93.472 14.959,83.211 16.856,84.378 "/>
<g id="Layer_1_13_">
	<g>
		<path fill="#A5A4A4" d="M10.001,101.327c-3.252,0-5.896,2.645-5.896,5.896c0,1.02,0.269,2.026,0.777,2.917
			c0.007,0.015,0.014,0.031,0.022,0.045l4.639,8.267c0.076,0.135,0.218,0.219,0.373,0.221c0.001,0,0.002,0,0.003,0
			c0.154,0,0.296-0.082,0.373-0.215l4.795-8.266c0.529-0.903,0.807-1.929,0.807-2.969C15.896,103.971,13.251,101.327,10.001,101.327
			z M10.001,110.314c-1.787,0-3.235-1.449-3.235-3.235c0-1.786,1.448-3.235,3.235-3.235c1.786,0,3.235,1.449,3.235,3.235
			C13.236,108.865,11.788,110.314,10.001,110.314z"/>
	</g>
</g>
<g id="Layer_1_12_">
	<path fill="#9398A3" d="M30.001,101.327c-3.252,0-5.896,2.645-5.896,5.896c0,1.02,0.269,2.026,0.777,2.917
		c0.007,0.015,0.014,0.031,0.022,0.045l4.639,8.267c0.076,0.135,0.218,0.219,0.373,0.221c0.001,0,0.002,0,0.003,0
		c0.154,0,0.296-0.082,0.373-0.215l4.795-8.266c0.529-0.903,0.807-1.929,0.807-2.969C35.896,103.971,33.251,101.327,30.001,101.327z
		 M30.001,110.314c-1.787,0-3.235-1.449-3.235-3.235c0-1.786,1.448-3.235,3.235-3.235c1.786,0,3.235,1.449,3.235,3.235
		C33.236,108.865,31.788,110.314,30.001,110.314z"/>
</g>
<g id="Layer_1_10_">
	<g>
		<path fill="#4F5055" d="M70.001,101.327c-3.252,0-5.896,2.645-5.896,5.896c0,1.02,0.269,2.026,0.777,2.917
			c0.007,0.015,0.014,0.031,0.022,0.045l4.639,8.267c0.076,0.135,0.218,0.219,0.373,0.221c0.001,0,0.002,0,0.003,0
			c0.154,0,0.296-0.082,0.373-0.215l4.795-8.266c0.529-0.903,0.807-1.929,0.807-2.969C75.896,103.971,73.251,101.327,70.001,101.327
			z M70.001,110.314c-1.787,0-3.235-1.449-3.235-3.235c0-1.786,1.448-3.235,3.235-3.235c1.786,0,3.235,1.449,3.235,3.235
			C73.236,108.865,71.788,110.314,70.001,110.314z"/>
	</g>
</g>
<g id="Layer_1_7_">
	<g>
		<path fill="#FFFFFF" d="M50.001,101.327c-3.252,0-5.896,2.645-5.896,5.896c0,1.02,0.269,2.026,0.777,2.917
			c0.007,0.015,0.014,0.031,0.022,0.045l4.639,8.267c0.076,0.135,0.218,0.219,0.373,0.221c0.001,0,0.002,0,0.003,0
			c0.154,0,0.296-0.082,0.373-0.215l4.795-8.266c0.529-0.903,0.807-1.929,0.807-2.969C55.896,103.971,53.251,101.327,50.001,101.327
			z M50.001,110.314c-1.787,0-3.235-1.449-3.235-3.235c0-1.786,1.448-3.235,3.235-3.235c1.786,0,3.235,1.449,3.235,3.235
			C53.236,108.865,51.788,110.314,50.001,110.314z"/>
	</g>
</g>
<g>
	<g>
		<path fill="#9398A3" d="M30,137.984c-4.402,0-7.984-3.582-7.984-7.984c0-4.402,3.582-7.984,7.984-7.984s7.984,3.582,7.984,7.984
			C37.984,134.402,34.402,137.984,30,137.984z M30,123.157c-3.773,0-6.843,3.07-6.843,6.843s3.07,6.843,6.843,6.843
			s6.843-3.07,6.843-6.843S33.773,123.157,30,123.157z"/>
		<polygon fill="#9398A3" points="33.359,132.743 29.43,130.318 29.43,125.139 30.57,125.139 30.57,129.682 33.958,131.773 		"/>
	</g>
</g>
<g>
	<g>
		<g>
			<path fill="#54BD82" d="M90,137.984c-4.402,0-7.984-3.582-7.984-7.984c0-4.402,3.582-7.984,7.984-7.984s7.984,3.582,7.984,7.984
				C97.984,134.402,94.402,137.984,90,137.984z M90,123.157c-3.773,0-6.843,3.07-6.843,6.843s3.07,6.843,6.843,6.843
				s6.843-3.07,6.843-6.843S93.773,123.157,90,123.157z"/>
			<polygon fill="#54BD82" points="93.359,132.743 89.43,130.318 89.43,125.139 90.57,125.139 90.57,129.682 93.958,131.773 			"/>
		</g>
	</g>
</g>
<polygon fill="#9398A3" points="36.52,155.615 30.915,150.01 36.52,144.405 35.605,143.49 30,149.095 24.395,143.49 23.48,144.405 
	29.085,150.01 23.48,155.616 24.395,156.531 30,150.925 35.605,156.53 "/>
<polygon fill="#9398A3" points="30.648,178.059 30.648,170.132 38.574,170.132 38.574,168.838 30.648,168.838 30.648,160.912 
	29.354,160.912 29.354,168.838 21.426,168.838 21.426,170.132 29.354,170.132 29.354,178.059 "/>
<polygon fill="#4F5055" points="70.648,178.584 70.648,170.657 78.574,170.657 78.574,169.363 70.648,169.363 70.648,161.437 
	69.354,161.437 69.354,169.363 61.426,169.363 61.426,170.657 69.354,170.657 69.354,178.584 "/>
<polygon fill="#4F5055" points="76.52,155.615 70.915,150.01 76.52,144.405 75.605,143.49 70,149.095 64.395,143.49 63.48,144.405 
	69.085,150.01 63.48,155.616 64.395,156.531 70,150.925 75.605,156.53 "/>
<path fill="#54BD82" d="M90,41.596c-4.641,0-8.404,3.763-8.404,8.404c0,4.641,3.763,8.404,8.404,8.404s8.404-3.763,8.404-8.404
	C98.404,45.359,94.641,41.596,90,41.596z M90.978,55.146h-1.957V53.19h1.957V55.146z M90.883,51.264h-1.664l-0.165-6.571h1.979
	L90.883,51.264z"/>
</svg>
